<svg id="Layer_1" data-name="Layer 1" xmlns="http://www.w3.org/2000/svg" viewBox="0 0 142.92 63.87"><defs><style>.cls-1{fill:#fff;}</style></defs><title>Artboard 1</title><path class="cls-1" d="M25.74,9.52H35V47.11q0,7.7-4.81,12.23T17.53,63.87q-8.4,0-13-4.24T0,47.85H9.28c0,2.85.7,5,2.12,6.42a8.19,8.19,0,0,0,6.13,2.16,7.63,7.63,0,0,0,6-2.49,9.92,9.92,0,0,0,2.23-6.86Z"/><path class="cls-1" d="M137.15,0H85.56a5.77,5.77,0,0,0-5.77,5.77V58a5.77,5.77,0,0,0,5.77,5.77h51.59A5.77,5.77,0,0,0,142.92,58V5.77A5.77,5.77,0,0,0,137.15,0Zm-8,40.44q0,7.38-4.72,11.68t-12.57,4.31q-8,0-12.62-4.24T94.58,40.41V9.52h8v31q0,4.65,2.35,7.09T111.87,50q9.27,0,9.28-9.79V9.52h8Z"/><path class="cls-1" d="M71.73,41.82h8.06v6.53H71.73V63h-8V48.35H35V43.64L63.21,0h8.52Zm-27.64,0h19.6V10.94l-1,1.73Z"/></svg>